# xmcd CD database file
#
# Track frame offsets:
#	150
#	9970
#	33295
#	45500
#	57277
#	68850
#	81530
#	92075
#	102525
#	121720
#	134450
#
# Disc length: 1950 seconds
#
# Revision: 2
# Processed by: cddbd v1.4PL0 Copyright (c) Steve Scherf et al.
# Submitted via: CDex 1.40Release
#
DISCID=8c079c0b
DTITLE=B.B. KING - His Best - The Electric B.B. King
DYEAR=1969
DGENRE=Blues
TTITLE0=Tired Of Your Jive
TTITLE1=Don't Answer The Door
TTITLE2=The B.B. Jones
TTITLE3=All over Again
TTITLE4=Paying The Cost To Be The Boss
TTITLE5=Think It Over
TTITLE6=I Done Got Wise
TTITLE7=Meet My Happiness
TTITLE8=Sweet Sixteen
TTITLE9=You Put It On Me
TTITLE10=I Don't Want You Cuttin' Off Your Hair
EXTD=YEAR: 1969 ID3G: 0
EXTT0=
EXTT1=
EXTT2=
EXTT3=
EXTT4=
EXTT5=
EXTT6=
EXTT7=
EXTT8=
EXTT9=
EXTT10=
PLAYORDER=
